<svg xmlns="http://www.w3.org/2000/svg" viewBox="0 0 80 80" fill="none" stroke="#4A5568" stroke-width="2.5" stroke-linecap="round" stroke-linejoin="round">
  <!-- えび -->
  <path d="M55 20 C60 15 62 12 58 10"/>
  <path d="M50 22 C54 16 58 14 55 11"/>
  <!-- 体のカーブ -->
  <path d="M55 20 C48 22 35 28 28 38 C22 48 24 56 30 60"/>
  <!-- 体の節 -->
  <path d="M48 26 C44 30 42 28 46 24"/>
  <path d="M42 32 C38 36 36 34 40 30"/>
  <path d="M36 40 C32 44 30 42 34 38"/>
  <!-- 尾 -->
  <path d="M30 60 C26 64 22 66 20 62"/>
  <path d="M30 60 C28 66 26 68 22 66"/>
</svg>
