<svg xmlns="http://www.w3.org/2000/svg" viewBox="0 0 80 80" fill="none" stroke="#4A5568" stroke-width="2.5" stroke-linecap="round" stroke-linejoin="round">
  <!-- 小麦: 穂 -->
  <path d="M40 68 L40 25"/>
  <!-- 左の葉 -->
  <path d="M40 50 C34 46 30 42 32 38"/>
  <path d="M40 42 C34 38 31 33 34 30"/>
  <path d="M40 34 C35 31 33 26 36 23"/>
  <!-- 右の葉 -->
  <path d="M40 50 C46 46 50 42 48 38"/>
  <path d="M40 42 C46 38 49 33 46 30"/>
  <path d="M40 34 C45 31 47 26 44 23"/>
  <!-- 先端 -->
  <path d="M40 25 C38 20 40 15 40 12"/>
</svg>
